<svg width="31" height="48" viewBox="0 0 31 48" fill="none" xmlns="http://www.w3.org/2000/svg">
<path d="M5.63751 47.7888C4.86048 47.4229 4.52721 46.4956 4.89277 45.718C4.89277 45.7172 4.98292 45.5265 5.14958 45.1557C5.31544 44.7842 5.5553 44.2402 5.84271 43.5594C6.4176 42.1959 7.18636 40.2816 7.95295 38.0937C9.49053 33.7275 10.9962 28.2239 10.9855 24.0277C10.9855 23.5796 10.9696 23.1478 10.9356 22.7352C10.6644 19.226 8.65096 14.82 6.41353 11.0901C4.18506 7.34981 1.77228 4.24434 0.826407 3.07041C0.555751 2.73434 0.412486 2.56515 0.41174 2.56434C-0.143004 1.90843 -0.0608577 0.926229 0.595298 0.371751C1.25139 -0.183474 2.23199 -0.101256 2.78673 0.5554C2.81482 0.589414 5.38721 3.63358 8.07532 7.85826C10.7538 12.0997 13.5972 17.4574 14.0344 22.4805C14.0754 22.9873 14.0948 23.5039 14.0948 24.0277C14.0844 28.9104 12.4693 34.583 10.8874 39.1236C9.29985 43.6536 7.72102 47.0115 7.70658 47.0434C7.44162 47.6072 6.88253 47.9373 6.29896 47.9373C6.07701 47.9373 5.8516 47.8894 5.63751 47.7888Z" fill="white"/>
<path d="M23.2755 47.0431C23.2619 47.0112 21.6821 43.6539 20.0946 39.1233C18.5118 34.5827 16.8968 28.91 16.8861 24.0281C16.8861 23.502 16.9063 22.9855 16.9476 22.4802C17.3852 17.457 20.229 12.1004 22.9072 7.85877C25.5962 3.63403 28.1678 0.589864 28.1959 0.555103L28.1966 0.555849C28.7508 -0.100807 29.7313 -0.182889 30.3876 0.371385C31.0427 0.92661 31.1255 1.90806 30.5709 2.56479C30.5709 2.56554 30.4267 2.73479 30.1564 3.07079C29.8858 3.40591 29.4952 3.89915 29.0245 4.51955C28.0824 5.76049 26.8147 7.5113 25.5305 9.52988C22.9517 13.553 20.352 18.7197 20.0468 22.7357C20.013 23.1497 19.9956 23.5817 19.9956 24.0281C19.9884 27.6958 21.1355 32.3765 22.4575 36.4062C23.7754 40.443 25.25 43.8564 25.833 45.1553C25.9989 45.5269 26.0888 45.7175 26.09 45.7183C26.4555 46.496 26.1219 47.4226 25.3446 47.7892C25.1305 47.8898 24.9057 47.9378 24.6841 47.9378C24.1003 47.9377 23.5404 47.6068 23.2755 47.0431Z" fill="white"/>
<path d="M14.1412 13.8236L9.96294 6.50517C9.6018 5.87228 9.72593 5.07807 10.2624 4.58612L14.4408 0.752501C15.0356 0.206035 15.9468 0.206035 16.5415 0.752501L20.7199 4.58612C21.2562 5.07732 21.3803 5.87228 21.0194 6.50517L16.8409 13.8236C16.5654 14.3059 16.0465 14.6072 15.4912 14.6072C14.9363 14.6072 14.4168 14.3059 14.1412 13.8236ZM13.2791 6.04038L15.4908 9.915L17.7034 6.03963L15.4912 4.00998L13.2791 6.04038Z" fill="white"/>
</svg>
